<svg width="301" height="67" viewBox="0 0 301 67" fill="none" xmlns="http://www.w3.org/2000/svg">
<path d="M0.982244 55.2543V43.0547L27.4989 1.27273H38.3395V17.8338H32.0501L16.532 42.4226V42.9283H54.9322V55.2543H0.982244ZM32.2397 66V51.5249L32.5558 46.1836V1.27273H47.1889V66H32.2397ZM87.1852 66H63.2601V1.27273H87.1536C93.7485 1.27273 99.4269 2.56854 104.189 5.16016C108.972 7.7307 112.659 11.439 115.251 16.2852C117.842 21.1102 119.138 26.8834 119.138 33.6048C119.138 40.3472 117.842 46.1415 115.251 50.9876C112.68 55.8337 109.003 59.5526 104.22 62.1442C99.4374 64.7147 93.7591 66 87.1852 66ZM78.9047 52.6626H86.5847C90.2087 52.6626 93.2744 52.0516 95.7818 50.8295C98.3102 49.5864 100.217 47.5742 101.502 44.793C102.809 41.9906 103.462 38.2612 103.462 33.6048C103.462 28.9483 102.809 25.2399 101.502 22.4798C100.196 19.6985 98.2681 17.6969 95.7186 16.4748C93.1902 15.2317 90.0718 14.6101 86.3635 14.6101H78.9047V52.6626ZM128.272 66V1.27273H155.01C159.856 1.27273 164.038 2.14713 167.557 3.89595C171.097 5.6237 173.825 8.10996 175.743 11.3548C177.66 14.5785 178.619 18.4027 178.619 22.8274C178.619 27.3153 177.639 31.129 175.68 34.2685C173.72 37.3868 170.939 39.7678 167.336 41.4112C163.733 43.0336 159.466 43.8448 154.536 43.8448H137.627V31.5188H151.628C153.988 31.5188 155.958 31.2133 157.538 30.6023C159.14 29.9702 160.351 29.022 161.173 27.7578C161.994 26.4725 162.405 24.8291 162.405 22.8274C162.405 20.8258 161.994 19.1718 161.173 17.8654C160.351 16.538 159.14 15.5477 157.538 14.8945C155.937 14.2203 153.967 13.8832 151.628 13.8832H143.916V66H128.272ZM164.713 36.4176L180.831 66H163.764L147.962 36.4176H164.713ZM187.2 66V1.27273H232.332V13.978H202.844V27.2521H230.025V39.989H202.844V53.2947H232.332V66H187.2ZM300.883 24.7237H285.081C284.87 23.1013 284.438 21.637 283.785 20.3306C283.132 19.0243 282.268 17.9076 281.193 16.9805C280.119 16.0534 278.844 15.3475 277.369 14.8629C275.915 14.3572 274.303 14.1044 272.533 14.1044C269.394 14.1044 266.686 14.8735 264.411 16.4116C262.156 17.9497 260.418 20.1726 259.196 23.0803C257.995 25.9879 257.395 29.5066 257.395 33.6364C257.395 37.9347 258.006 41.5376 259.228 44.4453C260.471 47.3319 262.209 49.5127 264.442 50.9876C266.697 52.4414 269.362 53.1683 272.439 53.1683C274.166 53.1683 275.736 52.9471 277.148 52.5046C278.58 52.0621 279.834 51.4195 280.909 50.5767C282.004 49.7128 282.9 48.6699 283.595 47.4478C284.312 46.2047 284.807 44.8035 285.081 43.2443L300.883 43.3391C300.609 46.2047 299.777 49.0281 298.386 51.8093C297.017 54.5906 295.131 57.1295 292.729 59.4261C290.327 61.7017 287.398 63.5137 283.943 64.8622C280.508 66.2107 276.568 66.8849 272.123 66.8849C266.265 66.8849 261.019 65.5997 256.383 63.0291C251.769 60.4375 248.124 56.666 245.448 51.7145C242.772 46.763 241.434 40.737 241.434 33.6364C241.434 26.5147 242.793 20.4781 245.511 15.5266C248.229 10.5752 251.906 6.81416 256.541 4.24361C261.177 1.67306 266.37 0.387782 272.123 0.387782C276.042 0.387782 279.666 0.935604 282.995 2.03125C286.324 3.10582 289.252 4.68608 291.781 6.77201C294.309 8.83688 296.364 11.3758 297.944 14.3888C299.524 17.4019 300.504 20.8468 300.883 24.7237Z" fill="#CCCCCC"/>
</svg>
