<?xml version="1.0" encoding="utf-8"?>
<!-- Generator: Adobe Illustrator 19.0.0, SVG Export Plug-In . SVG Version: 6.00 Build 0)  -->
<svg version="1.1" id="圖層_1" xmlns="http://www.w3.org/2000/svg" xmlns:xlink="http://www.w3.org/1999/xlink" x="0px" y="0px"
	 viewBox="-55 147 500 500" style="enable-background:new -55 147 500 500;" xml:space="preserve">
<style type="text/css">
	.st0{fill:#FFFFFF;}
</style>
<path class="st0" d="M196,221.2c97,0,175.8,78.9,175.8,175.8S293,572.8,196,572.8S20.2,494,20.2,397S99,221.2,196,221.2z M196,186
	C79.5,186-15,280.5-15,397s94.5,211,211,211s211-94.5,211-211S312.5,186,196,186z M301.5,484.9h-211v-35.2h211V484.9z M301.5,414.6
	h-211v-35.2h211V414.6z M301.5,344.3h-211v-35.2h211V344.3z"/>
</svg>
