<?xml version="1.0" encoding="utf-8"?>
<!-- Generator: Adobe Illustrator 19.0.0, SVG Export Plug-In . SVG Version: 6.00 Build 0)  -->
<svg version="1.1" id="圖層_1" xmlns="http://www.w3.org/2000/svg" xmlns:xlink="http://www.w3.org/1999/xlink" x="0px" y="0px"
	 viewBox="-229 31 408 354.1" style="enable-background:new -229 31 408 354.1;" xml:space="preserve">
<style type="text/css">
	.st0{fill:#FFFFFF;}
</style>
<path class="st0" d="M159.8,175.7c-41.5,88.7-141.7,209.4-205,209.4c-62.4,0-71.5-133.1-105.5-221.7c-16.8-43.6-27.6-33.6-59.1-11.6
	l-19.2-24.7c45.9-40.3,91.8-87.2,120-89.8c31.8-3,51.3,18.7,58.6,65.1c9.7,61.1,23.2,155.9,46.7,155.9c18.4,0,63.6-75.2,65.9-102.1
	c4.1-39.4-29-40.6-57.7-28.3C50-20.8,239,6.6,159.8,175.7z"/>
</svg>
