<svg width="298" height="71" viewBox="0 0 298 71" fill="none" xmlns="http://www.w3.org/2000/svg">
<path d="M58.8 0.800049H77.1L45.8 69.6001H31.4L0 0.800049H18.8L38.6 47L58.8 0.800049Z" fill="#CCCCCC"/>
<path d="M81 69.6001V0.800049H99.2V69.6001H81Z" fill="#CCCCCC"/>
<path d="M127 69.6001V15.5H106.6V0.800049H165.9V15.5H145.4V69.6001H127Z" fill="#CCCCCC"/>
<path d="M216.7 69.6001L210.6 55.4H180.1L174 69.6001H155.8L188 0.800049H202.3L234.6 69.6001H216.7ZM186 41.8H204.8L195.4 20.1L186 41.8Z" fill="#CCCCCC"/>
<path d="M297.8 30.8V65.3C294.1 67 290 68.3 285.5 69.2C281 70.1 276.3 70.6 271.5 70.6C264 70.6 257.5 69.2 252 66.3C246.5 63.5 242.3 59.4 239.3 54.1C236.3 48.8 234.9 42.5 234.9 35.2C234.9 28.1 236.4 21.9 239.3 16.6C242.3 11.3 246.5 7.2 251.9 4.3C257.3 1.4 263.6 0 270.8 0C275.8 0 280.4 0.600001 284.9 1.9C289.3 3.2 292.9 5 295.7 7.2L290 20.1C286.8 18 283.8 16.5 280.9 15.6C278 14.7 274.8 14.2 271.5 14.2C265.4 14.2 260.8 15.9 257.8 19.4C254.8 22.8 253.3 28.1 253.3 35.2C253.3 42.5 254.9 48 258 51.5C261.1 55 265.9 56.8 272.5 56.8C275.5 56.8 278.6 56.5 281.6 55.8V43.1H269.6V30.8H297.8Z" fill="#CCCCCC"/>
</svg>
