<svg width="350" height="253" viewBox="0 0 350 253" fill="none" xmlns="http://www.w3.org/2000/svg">
<g clip-path="url(#clip0_602_14)">
<path d="M307.42 0L174.15 93.31L41.07 1.37L40.18 0.76L22.12 10.15L158.42 104.33L143.48 114.79L5.85 19.7L4.96 19.09L0 21.67V37.54L51.21 72.93L129.52 127.51L129.62 127.58L307.42 252.08L349.04 230.41V21.67L307.42 0ZM295 74.67V177.41L221.63 126.04L295 74.67V74.67Z" fill="white"/>
<path d="M97.06 147.29L144.49 180.06L160.22 169.04L112.8 136.27L97.06 147.29Z" fill="white"/>
<path d="M54.04 95.6801L0 58.3401V80.2301L54.04 117.56V95.6801Z" fill="white"/>
<path d="M54.04 138.36L0 101.01V122.9L54.04 160.24V138.36Z" fill="white"/>
<path d="M66.39 168.77L113.81 201.54L129.54 190.52L82.12 157.75L66.39 168.77Z" fill="white"/>
<path d="M0 165.57L83.13 223.02L98.86 212L0 143.69V165.57Z" fill="white"/>
<path d="M0 208.25L52.46 244.5L68.19 233.48L0 186.37V208.25Z" fill="white"/>
</g>
<defs>
<clipPath id="clip0_602_14">
<rect width="349.04" height="252.08" fill="white"/>
</clipPath>
</defs>
</svg>
