<?xml version="1.0" encoding="utf-8"?>
<!-- Generator: Adobe Illustrator 19.0.0, SVG Export Plug-In . SVG Version: 6.00 Build 0)  -->
<svg version="1.1" id="圖層_1" xmlns="http://www.w3.org/2000/svg" xmlns:xlink="http://www.w3.org/1999/xlink" x="0px" y="0px"
	 viewBox="-275 103.9 408 354.1" style="enable-background:new -275 103.9 408 354.1;" xml:space="preserve">
<style type="text/css">
	.st0{fill:#FFFFFF;}
</style>
<g>
	<path class="st0" d="M78.3,225.6C25.9,162-43,122.2-123.5,106.4c-54.1-10.6-88.1,13.1-106.7,65.4c-8.6,24.2-13,49.4-13.8,75
		c-1.4,48.5-2.7,96.9,13.5,143.8c17.3,50,51.9,72.9,102.9,66.9c17.1-2,33.6-6.6,49.8-12.8c32.7-12.4,62.5-30.2,91.4-47.8
		c17.6,1.8,32.5,10.8,50.8,10.6c-3.6-14.4-6.8-27.6-11-44.3c3.6-2.7,8.1-5.1,11.4-8.6C105.8,311,112.4,267,78.3,225.6z
		 M-141.7,322.3c-5.8,3-11.3,2.2-19,0.5c0-12.7,0-25.6,0-38.6c0-7.9,0.5-15.9-0.4-23.7c-1.1-10.8-9.4-14.5-17.7-7.7
		c-6.8,5.6-12.2,12.1-11.8,22.3c0.6,14.9,0,29.9-0.2,44.8c0,0.8-0.7,1.6-1.2,2.7c-5.2,2.7-10.6,2.5-16.6-0.4c0-29.1,0-58.4,0-87.1
		c4.4-3.3,8.4-1.7,10.2-1.9c6.6,0.6,4.3,6.6,8.9,8c1.8-1.2,3.9-2.5,6-4c19.5-12.9,39.5-4.9,41.4,18.2
		C-140.3,277.5-141.7,299.9-141.7,322.3z M-54.1,306.1c3.4,4.6,2.7,9.6,1,15.1c-10.3,4.4-21.2,5.5-32.1,4.7
		c-21-1.6-33.8-14.5-35.8-35.6c-1.2-12.3-1.2-24.5,4.5-36.2c7.9-16.3,21.4-25,37.6-23.2c15.8,1.7,26.8,12.4,30.2,30.4
		c1.3,6.8,0.8,13.9,1.2,23.4c-19,0-35.9,0-52.8,0C-100.2,307.2-90.8,311.2-54.1,306.1z M39,321.6c-7.2,3.3-13.6,2.1-21.4,1.1
		c-3.3-10.4-6.8-21.1-10.7-33.3c-7.6,10.6-6.5,23.4-13,33c-6.5,1.8-12.9,1.9-21-0.4c-3.6-28.6-7.2-57.7-10.8-87.1
		c6.7-3,11.4-1.9,16.8-1.3c5.1,18.9,4.5,38.3,9.9,57.5c3.4-10.4,6.8-20.9,9.9-30.7c4.9-3,9.2-1.5,14.6-1.5
		c3.9,11.1,7.8,22.1,11.6,33.1c0.8,0,1.6,0,2.3,0c2.1-19.3,4.1-38.6,6.1-57.4c5.7-2.7,10.4-2.3,17.1-0.7
		C46.7,263.3,42.8,292.5,39,321.6z"/>
	<path class="st0" d="M-83.7,247.1c-11.2,0.8-16.8,7.7-16.9,21.4c11.4-0.1,21.6,1.4,31.7-0.9C-68.7,253.9-73.8,246.4-83.7,247.1z"/>
</g>
</svg>
